<svg width="124" height="32" viewBox="0 0 124 32" fill="none" xmlns="http://www.w3.org/2000/svg">
<g clip-path="url(#clip0_6513_314)">
<path d="M43.3386 23.2788C41.8172 23.2788 40.5081 22.9676 39.4115 22.3452C38.3149 21.7228 37.4751 20.8386 36.8922 19.6925C36.3093 18.5564 36.0179 17.2276 36.0179 15.7062C36.0179 14.2045 36.339 12.8855 36.9811 11.7494C37.6233 10.6034 38.5174 9.71914 39.6634 9.09673C40.8193 8.47432 42.1333 8.16312 43.6054 8.16312C44.3562 8.16312 45.0824 8.24215 45.7838 8.40023C46.4951 8.54842 47.1077 8.75589 47.6214 9.02264L47.325 11.5567C46.1197 11.0035 44.8798 10.7269 43.6054 10.7269C42.0642 10.7269 40.8984 11.1764 40.108 12.0754C39.3177 12.9843 38.9225 14.1798 38.9225 15.6617C38.9225 17.193 39.3078 18.4181 40.0784 19.3369C40.8589 20.2557 41.9802 20.7151 43.4424 20.7151C44.0351 20.7151 44.702 20.641 45.443 20.4928V17.8994H43.4424V15.7062H48.0956V22.1674C47.5523 22.4934 46.8656 22.7601 46.0357 22.9676C45.196 23.1751 44.2969 23.2788 43.3386 23.2788ZM54.9866 23.1899C53.89 23.1899 52.9415 22.9479 52.1413 22.4638C51.3411 21.9797 50.7236 21.3276 50.2889 20.5076C49.8641 19.6975 49.6517 18.7984 49.6517 17.8105C49.6517 16.8324 49.8641 15.9284 50.2889 15.0986C50.7236 14.2687 51.3411 13.6117 52.1413 13.1276C52.9415 12.6435 53.89 12.4014 54.9866 12.4014C56.0734 12.4014 57.0169 12.6435 57.8171 13.1276C58.6272 13.6117 59.2447 14.2687 59.6695 15.0986C60.0943 15.9284 60.3068 16.8324 60.3068 17.8105C60.3068 18.7984 60.0943 19.6975 59.6695 20.5076C59.2447 21.3276 58.6272 21.9797 57.8171 22.4638C57.0169 22.9479 56.0734 23.1899 54.9866 23.1899ZM54.9866 21.0707C55.8264 21.0707 56.4834 20.7744 56.9576 20.1816C57.4417 19.5888 57.6837 18.7984 57.6837 17.8105C57.6837 16.8225 57.4417 16.0272 56.9576 15.4246C56.4834 14.8219 55.8264 14.5206 54.9866 14.5206C54.137 14.5206 53.475 14.8219 53.0008 15.4246C52.5266 16.0272 52.2895 16.8225 52.2895 17.8105C52.2895 18.7984 52.5266 19.5888 53.0008 20.1816C53.475 20.7744 54.137 21.0707 54.9866 21.0707ZM66.8124 23.1899C65.7158 23.1899 64.7674 22.9479 63.9671 22.4638C63.1669 21.9797 62.5494 21.3276 62.1147 20.5076C61.6899 19.6975 61.4775 18.7984 61.4775 17.8105C61.4775 16.8324 61.6899 15.9284 62.1147 15.0986C62.5494 14.2687 63.1669 13.6117 63.9671 13.1276C64.7674 12.6435 65.7158 12.4014 66.8124 12.4014C67.8992 12.4014 68.8427 12.6435 69.6429 13.1276C70.453 13.6117 71.0705 14.2687 71.4953 15.0986C71.9202 15.9284 72.1326 16.8324 72.1326 17.8105C72.1326 18.7984 71.9202 19.6975 71.4953 20.5076C71.0705 21.3276 70.453 21.9797 69.6429 22.4638C68.8427 22.9479 67.8992 23.1899 66.8124 23.1899ZM66.8124 21.0707C67.6522 21.0707 68.3092 20.7744 68.7834 20.1816C69.2675 19.5888 69.5096 18.7984 69.5096 17.8105C69.5096 16.8225 69.2675 16.0272 68.7834 15.4246C68.3092 14.8219 67.6522 14.5206 66.8124 14.5206C65.9628 14.5206 65.3009 14.8219 64.8266 15.4246C64.3524 16.0272 64.1153 16.8225 64.1153 17.8105C64.1153 18.7984 64.3524 19.5888 64.8266 20.1816C65.3009 20.7744 65.9628 21.0707 66.8124 21.0707ZM80.8167 7.42215H83.3804V22.9824H80.9501L80.9204 22.3156C80.5154 22.612 80.0955 22.8293 79.6608 22.9676C79.2261 23.1158 78.7124 23.1899 78.1196 23.1899C77.102 23.1899 76.2326 22.9479 75.5114 22.4638C74.7803 21.9797 74.232 21.3276 73.8664 20.5076C73.491 19.6975 73.3033 18.7984 73.3033 17.8105C73.3033 16.8324 73.491 15.9334 73.8664 15.1134C74.232 14.3033 74.7803 13.6561 75.5114 13.172C76.2326 12.6879 77.102 12.4459 78.1196 12.4459C79.1273 12.4459 80.0263 12.7225 80.8167 13.2758V7.42215ZM78.4901 21.0707C79.3002 21.0707 79.9127 20.7793 80.3277 20.1964C80.7327 19.6234 80.9352 18.8281 80.9352 17.8105C80.9352 16.8028 80.7327 16.0075 80.3277 15.4246C79.9127 14.8516 79.3002 14.5651 78.4901 14.5651C77.6898 14.5651 77.0625 14.8614 76.608 15.4542C76.1634 16.047 75.9411 16.8324 75.9411 17.8105C75.9411 18.7984 76.1634 19.5888 76.608 20.1816C77.0625 20.7744 77.6898 21.0707 78.4901 21.0707ZM95.8287 12.4459C96.8166 12.4459 97.6613 12.6879 98.3628 13.172C99.0642 13.6561 99.5977 14.3033 99.9633 15.1134C100.319 15.9334 100.497 16.8324 100.497 17.8105C100.497 18.7984 100.319 19.6975 99.9633 20.5076C99.5977 21.3276 99.0642 21.9797 98.3628 22.4638C97.6613 22.9479 96.8166 23.1899 95.8287 23.1899C94.7419 23.1899 93.754 22.8935 92.8648 22.3007L92.8203 22.9824H90.4196V7.42215H92.9834V13.3795C93.833 12.7571 94.7814 12.4459 95.8287 12.4459ZM95.4582 21.0707C96.2189 21.0707 96.8117 20.7744 97.2365 20.1816C97.6514 19.5888 97.8589 18.7984 97.8589 17.8105C97.8589 16.8324 97.6514 16.047 97.2365 15.4542C96.8117 14.8614 96.2189 14.5651 95.4582 14.5651C94.5888 14.5651 93.9367 14.8516 93.502 15.4246C93.0772 16.0075 92.8648 16.8028 92.8648 17.8105C92.8648 18.8281 93.0772 19.6234 93.502 20.1964C93.9367 20.7793 94.5888 21.0707 95.4582 21.0707ZM106.988 23.1899C105.901 23.1899 104.957 22.9479 104.157 22.4638C103.347 21.9797 102.73 21.3276 102.305 20.5076C101.88 19.6975 101.667 18.7984 101.667 17.8105C101.667 16.8324 101.88 15.9284 102.305 15.0986C102.73 14.2687 103.347 13.6117 104.157 13.1276C104.957 12.6435 105.901 12.4014 106.988 12.4014C108.084 12.4014 109.033 12.6435 109.833 13.1276C110.633 13.6117 111.251 14.2687 111.685 15.0986C112.11 15.9284 112.323 16.8324 112.323 17.8105C112.323 18.7984 112.11 19.6975 111.685 20.5076C111.251 21.3276 110.633 21.9797 109.833 22.4638C109.033 22.9479 108.084 23.1899 106.988 23.1899ZM106.988 21.0707C107.837 21.0707 108.499 20.7744 108.973 20.1816C109.448 19.5888 109.685 18.7984 109.685 17.8105C109.685 16.8225 109.448 16.0272 108.973 15.4246C108.499 14.8219 107.837 14.5206 106.988 14.5206C106.148 14.5206 105.491 14.8219 105.017 15.4246C104.533 16.0272 104.291 16.8225 104.291 17.8105C104.291 18.7984 104.533 19.5888 105.017 20.1816C105.491 20.7744 106.148 21.0707 106.988 21.0707ZM114.946 28.0062L117.243 22.3007L112.93 12.6089H115.79L118.443 19.2924L121.14 12.6089H124L117.509 28.0062H114.946Z" fill="#111827"/>
<path d="M10.7133 6.64444C10.7133 6.87558 10.8051 7.09726 10.9686 7.26071C11.132 7.42415 11.3537 7.51598 11.5848 7.51598C11.816 7.51598 12.0377 7.42415 12.2011 7.26071C12.3646 7.09726 12.4564 6.87558 12.4564 6.64444C12.4564 6.41329 12.3646 6.19161 12.2011 6.02817C12.0377 5.86472 11.816 5.7729 11.5848 5.7729C11.3537 5.7729 11.132 5.86472 10.9686 6.02817C10.8051 6.19161 10.7133 6.41329 10.7133 6.64444ZM12.55 7.82165C12.55 8.05279 12.6418 8.27447 12.8053 8.43792C12.9687 8.60136 13.1904 8.69319 13.4215 8.69319C13.6527 8.69319 13.8743 8.60136 14.0378 8.43792C14.2012 8.27447 14.2931 8.05279 14.2931 7.82165C14.2931 7.5905 14.2012 7.36882 14.0378 7.20538C13.8743 7.04193 13.6527 6.95011 13.4215 6.95011C13.1904 6.95011 12.9687 7.04193 12.8053 7.20538C12.6418 7.36882 12.55 7.5905 12.55 7.82165ZM8.95639 17.0953C9.6554 17.3019 10.4127 17.2621 11.2281 16.9763C11.3243 15.521 11.0264 14.3761 10.4876 14.3006C9.89632 14.2175 9.22862 15.4514 8.95639 17.0953ZM24.2433 23.2312C24.8817 24.0676 25.3754 25.1967 25.6522 26.4972C26.5997 25.7224 27.7476 25.2689 28.9848 25.2689C29.4379 25.2689 29.8796 25.3298 30.3034 25.4452C27.9068 26.0967 26.0678 28.4861 25.7758 31.438H8.34307C8.13144 30.6108 8.02536 29.7601 8.02735 28.9063C8.02735 27.0812 8.49632 25.4142 9.26915 24.1437C8.76821 22.4162 8.48808 20.4842 8.48808 18.4459C8.48808 17.9954 8.50159 17.5498 8.52862 17.1105C5.05796 16.3185 2.42176 14.4057 1.68847 12.0549C1.43523 12.0235 1.19075 11.9421 0.969251 11.8154C0.747753 11.6887 0.553656 11.5192 0.398243 11.3168C0.242831 11.1144 0.129205 10.8831 0.0639715 10.6364C-0.0012622 10.3897 -0.016802 10.1325 0.0182556 9.87972C0.0533133 9.62695 0.138269 9.38368 0.268183 9.16404C0.398097 8.9444 0.570378 8.75278 0.775009 8.60032C0.97964 8.44785 1.21254 8.33759 1.46016 8.27594C1.70779 8.21428 1.9652 8.20247 2.21743 8.24119C3.76837 5.72363 7.60913 3.942 12.1018 3.942C13.4263 3.942 14.6938 4.09689 15.8628 4.37966C15.9959 2.192 16.5117 0.561966 17.1267 0.561966C17.8234 0.561966 18.3919 2.65174 18.4232 5.2741L18.5468 5.33342C19.5569 3.20772 20.7516 1.76389 21.3461 2.01634C21.9795 2.28527 21.701 4.38296 20.7338 6.7733C21.469 7.42716 22.0263 8.16835 22.3608 8.96755C23.8577 11.3823 24.7851 14.7373 24.7851 18.4462C24.7851 20.1326 24.5933 21.7461 24.2433 23.2312Z" fill="#4F46E5"/>
</g>
<defs>
<clipPath id="clip0_6513_314">
<rect width="124" height="32" fill="white"/>
</clipPath>
</defs>
</svg>
